<svg width="408" height="408" viewBox="0 0 408 408" fill="none" xmlns="http://www.w3.org/2000/svg">
<g clip-path="url(#clip0)">
<path d="M335.94 114.944H71.581C68.721 114.701 65.887 115.646 63.744 117.556C61.637 119.58 60.661 122.51 61.132 125.393L88.299 362.062C91.485 388.155 113.735 407.709 140.021 407.515H271.678C298.704 407.9 321.469 387.411 323.923 360.495L346.388 124.348C346.527 121.815 345.577 119.343 343.776 117.556C341.634 115.646 338.8 114.701 335.94 114.944ZM303.026 359.45C301.384 375.359 287.66 387.253 271.679 386.617H140.022C124.328 387.254 110.838 375.593 109.197 359.972L83.075 135.842H324.446L303.026 359.45Z" fill="#FFFDFD"/>
<path d="M374.079 47.026H266.454V30.307C267.034 14.159 254.414 0.59899 238.266 0.0189902C237.736 -9.7584e-06 237.205 -0.00500976 236.675 0.00499024H170.846C154.69 -0.29401 141.352 12.56 141.053 28.716C141.043 29.246 141.048 29.777 141.067 30.307V47.025H33.442C27.671 47.025 22.993 51.703 22.993 57.474C22.993 63.245 27.671 67.923 33.442 67.923H374.079C379.85 67.923 384.528 63.245 384.528 57.474C384.528 51.703 379.849 47.026 374.079 47.026ZM245.556 30.307V47.025H161.964V30.307C161.375 25.728 164.61 21.539 169.189 20.95C169.738 20.879 170.293 20.864 170.845 20.903H236.674C241.279 20.577 245.277 24.045 245.603 28.651C245.643 29.203 245.627 29.758 245.556 30.307Z" fill="#FFFDFD"/>
</g>
<defs>
<clipPath id="clip0">
<rect width="407.521" height="407.521" fill="white"/>
</clipPath>
</defs>
</svg>
