<svg width="300" height="307" viewBox="0 0 300 307" fill="none" xmlns="http://www.w3.org/2000/svg">
<path d="M130 0L231.638 47.0638L256.741 152.815L186.405 237.621H73.5951L3.25937 152.815L28.3619 47.0638L130 0Z" fill="#51ABD2"/>
<g clip-path="url(#clip0)">
<path d="M202.178 99.3421H195.151C194.793 99.3415 194.45 99.1435 194.196 98.7915C193.943 98.4395 193.8 97.9623 193.8 97.4645V87.7012C193.8 87.2034 193.943 86.7262 194.196 86.3742C194.45 86.0222 194.793 85.8242 195.151 85.8237H202.178C202.536 85.8242 202.879 86.0222 203.133 86.3742C203.386 86.7262 203.529 87.2034 203.529 87.7012V97.4645C203.529 97.9623 203.386 98.4395 203.133 98.7915C202.879 99.1435 202.536 99.3415 202.178 99.3421V99.3421ZM195.151 86.5747C194.936 86.575 194.73 86.6938 194.578 86.905C194.426 87.1162 194.341 87.4026 194.34 87.7012V97.4645C194.341 97.7632 194.426 98.0495 194.578 98.2607C194.73 98.4719 194.936 98.5907 195.151 98.5911H202.178C202.393 98.5907 202.599 98.4719 202.751 98.2607C202.903 98.0495 202.988 97.7632 202.988 97.4645V87.7012C202.988 87.4026 202.903 87.1162 202.751 86.905C202.599 86.6938 202.393 86.575 202.178 86.5747H195.151Z" fill="#FCE245"/>
<path d="M120.293 41.1378H113.266C112.908 41.1372 112.564 40.9392 112.311 40.5872C112.058 40.2353 111.915 39.758 111.915 39.2602V29.4969C111.915 28.9992 112.058 28.5219 112.311 28.1699C112.564 27.818 112.908 27.62 113.266 27.6194H120.293C120.651 27.62 120.994 27.818 121.248 28.1699C121.501 28.5219 121.643 28.9992 121.644 29.4969V39.2602C121.643 39.758 121.501 40.2353 121.248 40.5872C120.994 40.9392 120.651 41.1372 120.293 41.1378V41.1378ZM113.266 28.3704C113.051 28.3707 112.845 28.4895 112.693 28.7007C112.541 28.9119 112.456 29.1983 112.455 29.4969V39.2602C112.456 39.5589 112.541 39.8453 112.693 40.0565C112.845 40.2677 113.051 40.3865 113.266 40.3868H120.293C120.508 40.3865 120.714 40.2677 120.866 40.0565C121.018 39.8453 121.103 39.5589 121.103 39.2602V29.4969C121.103 29.1983 121.018 28.9119 120.866 28.7007C120.714 28.4895 120.508 28.3707 120.293 28.3704H113.266Z" fill="#E6E6E6"/>
<path d="M197.854 94.4604H190.827C190.469 94.4599 190.126 94.2619 189.872 93.9099C189.619 93.5579 189.476 93.0807 189.476 92.5829V82.8196C189.476 82.3218 189.619 81.8446 189.872 81.4926C190.126 81.1406 190.469 80.9426 190.827 80.942H197.854C198.212 80.9426 198.555 81.1406 198.809 81.4926C199.062 81.8446 199.205 82.3218 199.205 82.8196V92.5829C199.205 93.0807 199.062 93.5579 198.809 93.9099C198.555 94.2619 198.212 94.4599 197.854 94.4604V94.4604ZM190.827 81.693C190.612 81.6934 190.406 81.8122 190.254 82.0234C190.102 82.2345 190.017 82.5209 190.017 82.8196V92.5829C190.017 92.8815 190.102 93.1679 190.254 93.3791C190.406 93.5903 190.612 93.7091 190.827 93.7094H197.854C198.069 93.7091 198.275 93.5903 198.427 93.3791C198.579 93.1679 198.664 92.8815 198.664 92.5829V82.8196C198.664 82.5209 198.579 82.2345 198.427 82.0234C198.275 81.8122 198.069 81.6934 197.854 81.693H190.827Z" fill="#FDE141"/>
<path d="M75.7017 175.947H68.6752C68.317 175.946 67.9735 175.748 67.7202 175.396C67.4669 175.044 67.3244 174.567 67.324 174.069V164.306C67.3244 163.808 67.4669 163.331 67.7202 162.979C67.9735 162.627 68.317 162.429 68.6752 162.428H75.7017C76.0599 162.429 76.4034 162.627 76.6567 162.979C76.91 163.331 77.0525 163.808 77.0529 164.306V174.069C77.0525 174.567 76.91 175.044 76.6567 175.396C76.4034 175.748 76.0599 175.946 75.7017 175.947V175.947ZM68.6752 163.179C68.4603 163.179 68.2542 163.298 68.1022 163.509C67.9502 163.721 67.8647 164.007 67.8645 164.306V174.069C67.8647 174.368 67.9502 174.654 68.1022 174.865C68.2542 175.076 68.4603 175.195 68.6752 175.195H75.7017C75.9166 175.195 76.1227 175.076 76.2747 174.865C76.4267 174.654 76.5122 174.368 76.5124 174.069V164.306C76.5122 164.007 76.4267 163.721 76.2747 163.509C76.1227 163.298 75.9166 163.179 75.7017 163.179H68.6752Z" fill="#FCE245"/>
<path d="M71.3777 171.065H64.3512C63.993 171.064 63.6495 170.866 63.3962 170.514C63.1429 170.162 63.0004 169.685 63 169.187V159.424C63.0004 158.926 63.1429 158.449 63.3962 158.097C63.6495 157.745 63.993 157.547 64.3512 157.546H71.3777C71.7359 157.547 72.0794 157.745 72.3327 158.097C72.586 158.449 72.7285 158.926 72.7289 159.424V169.187C72.7285 169.685 72.586 170.162 72.3327 170.514C72.0794 170.866 71.7359 171.064 71.3777 171.065V171.065ZM64.3512 158.297C64.1363 158.298 63.9302 158.417 63.7782 158.628C63.6262 158.839 63.5407 159.125 63.5405 159.424V169.187C63.5407 169.486 63.6262 169.772 63.7782 169.983C63.9302 170.195 64.1363 170.313 64.3512 170.314H71.3777C71.5926 170.313 71.7987 170.195 71.9507 169.983C72.1027 169.772 72.1882 169.486 72.1884 169.187V159.424C72.1882 159.125 72.1027 158.839 71.9507 158.628C71.7987 158.417 71.5926 158.298 71.3777 158.297H64.3512Z" fill="#FCE245"/>
<path d="M87.9788 59.9279H153.005C156.142 59.9279 159.187 61.4113 161.638 64.1343C164.088 66.8572 165.799 70.6577 166.489 74.911L199.346 277.412C199.704 279.621 199.71 281.912 199.364 284.124C199.018 286.337 198.328 288.417 197.342 290.22C196.356 292.023 195.098 293.504 193.656 294.559C192.215 295.615 190.624 296.22 188.997 296.331L122.15 300.908C118.57 301.153 115.049 299.58 112.243 296.482C109.437 293.385 107.538 288.975 106.9 284.074L88.2616 140.904L86.875 141.454L83.3087 114.318L84.736 113.822L79.5335 73.8584C79.3107 72.1467 79.3623 70.3877 79.6848 68.7069C80.0073 67.0261 80.5927 65.4648 81.3993 64.1344C82.2058 62.804 83.2137 61.7373 84.3509 61.0102C85.4882 60.2831 86.7269 59.9135 87.9788 59.9279V59.9279Z" fill="#3F3D56"/>
<path d="M144.444 64.2933H152.035C154.215 64.2933 156.329 65.3292 158.027 67.229C159.724 69.1288 160.903 71.7783 161.368 74.7376L192.906 275.587C193.087 276.743 193.087 277.94 192.905 279.096C192.723 280.253 192.364 281.341 191.851 282.286C191.339 283.232 190.686 284.013 189.937 284.576C189.187 285.138 188.359 285.47 187.509 285.547L120.879 291.615C118.999 291.786 117.14 290.99 115.655 289.377C114.171 287.765 113.167 285.45 112.833 282.874L85.9214 75.2771C85.7472 73.9334 85.7874 72.553 86.0391 71.2333C86.2908 69.9136 86.7478 68.6867 87.378 67.6392C88.0082 66.5917 88.7962 65.7492 89.6863 65.1711C90.5764 64.5929 91.547 64.2933 92.5296 64.2933H99.7303C100.427 64.2933 101.105 64.6125 101.658 65.2016C102.211 65.7907 102.609 66.6167 102.79 67.5518V67.5518C102.95 68.3773 103.302 69.1065 103.79 69.6266C104.278 70.1466 104.876 70.4284 105.492 70.4284H139.676C140.881 70.4284 142.041 69.7965 142.925 68.6591C143.809 67.5216 144.352 65.9624 144.444 64.2933L144.444 64.2933Z" fill="white"/>
<path d="M91.1058 98.4431H163.391L171.091 146.657L97.862 148.534L91.1058 98.4431Z" fill="#FDE03C"/>
<path d="M159.749 189.748H176.767L177.307 194.275H160.289L159.749 189.748Z" fill="#FDE141"/>
<path d="M173.595 166.655L101.421 168.779L101.428 169.251L173.602 167.127L173.595 166.655Z" fill="#2F2E41"/>
<path d="M175.802 180.577L102.27 182.937L102.278 183.409L175.81 181.049L175.802 180.577Z" fill="#2F2E41"/>
<path d="M166.775 238.189H183.793L184.333 242.716H167.316L166.775 238.189Z" fill="#FDE141"/>
<path d="M180.621 215.096L108.448 217.22L108.455 217.692L180.629 215.568L180.621 215.096Z" fill="#2F2E41"/>
<path d="M182.829 229.018L109.296 231.378L109.304 231.85L182.836 229.49L182.829 229.018Z" fill="#2F2E41"/>
<path d="M229.354 302.196L226.134 302.196L224.602 284.938L229.354 284.939L229.354 302.196Z" fill="#A0616A"/>
<path d="M230.175 306.533L219.792 306.532V306.35C219.792 304.861 220.218 303.433 220.976 302.38C221.734 301.327 222.762 300.735 223.834 300.735H223.834L230.175 300.735L230.175 306.533Z" fill="#FDE141"/>
<path d="M269.355 299.266L266.221 300.292L261.883 283.982L266.508 282.468L269.355 299.266Z" fill="#A0616A"/>
<path d="M270.87 303.227L260.764 306.533L260.734 306.356C260.488 304.906 260.667 303.38 261.231 302.114C261.795 300.847 262.698 299.944 263.741 299.603L263.741 299.603L269.913 297.583L270.87 303.227Z" fill="#FCE245"/>
<path d="M228.696 229.407C228.702 228.507 228.894 207.283 233.081 199.258L233.143 199.14L247.734 201.937L247.407 206.391C248.049 207.259 253.097 214.589 254.555 231.946L270.043 289.743L262.843 290.653L241.529 227.56L230.251 296.142H223.113L228.696 229.407Z" fill="#2F2E41"/>
<path d="M231.371 200.041L232.798 189.636C232.518 189.137 231.281 186.739 231.557 183.927C231.736 182.093 232.524 180.485 233.899 179.146L237.596 167.159L237.646 167.119C237.895 166.915 243.781 162.185 246.99 166.647C247.07 166.734 254.972 175.449 251.799 187.205L247.882 203.534L231.371 200.041Z" fill="#CCCCCC"/>
<path d="M226.409 214.118C226.793 214.057 227.164 213.879 227.494 213.598C227.824 213.316 228.105 212.938 228.318 212.489C228.531 212.04 228.671 211.532 228.728 210.999C228.784 210.467 228.756 209.924 228.645 209.409L236.28 201.766L231.71 199.35L225.16 206.979C224.549 207.295 224.043 207.911 223.738 208.711C223.432 209.511 223.349 210.439 223.502 211.319C223.656 212.199 224.037 212.97 224.573 213.486C225.109 214.002 225.762 214.227 226.409 214.118V214.118Z" fill="#A0616A"/>
<path d="M227.812 201.754L239.468 188.993L236.003 172.543C235.839 171.764 235.793 170.946 235.867 170.142C235.941 169.337 236.133 168.562 236.432 167.865C236.709 167.208 237.081 166.638 237.525 166.192C237.97 165.747 238.476 165.435 239.012 165.277C241.007 164.691 242.819 166.243 244.394 169.892L244.406 169.925C244.667 170.811 250.739 191.668 246.103 196.128C241.567 200.491 231.05 206.842 230.945 206.906L230.821 206.98L227.812 201.754Z" fill="#CCCCCC"/>
<path d="M243.303 162.309C247.203 162.309 250.364 157.917 250.364 152.498C250.364 147.079 247.203 142.687 243.303 142.687C239.403 142.687 236.242 147.079 236.242 152.498C236.242 157.917 239.403 162.309 243.303 162.309Z" fill="#A0616A"/>
<path d="M254.373 148.996C257.823 148.996 260.62 145.109 260.62 140.316C260.62 135.522 257.823 131.636 254.373 131.636C250.923 131.636 248.126 135.522 248.126 140.316C248.126 145.109 250.923 148.996 254.373 148.996Z" fill="#2F2E41"/>
<path d="M259.761 147.503C258.953 148.315 258.016 148.846 257.029 149.052C256.043 149.258 255.035 149.132 254.091 148.686C253.146 148.24 252.292 147.486 251.601 146.487C250.909 145.488 250.399 144.274 250.115 142.946C250.222 144.136 250.507 145.283 250.949 146.313C251.392 147.343 251.984 148.234 252.687 148.931C253.39 149.627 254.19 150.114 255.035 150.359C255.88 150.605 256.753 150.604 257.598 150.357C258.443 150.11 259.242 149.623 259.945 148.925C260.647 148.227 261.238 147.335 261.68 146.304C262.122 145.273 262.405 144.126 262.512 142.935C262.619 141.745 262.546 140.536 262.3 139.386C262.44 140.931 262.278 142.5 261.831 143.928C261.385 145.356 260.67 146.591 259.761 147.503V147.503Z" fill="#2F2E41"/>
<path d="M235.109 147.513C236.2 144.8 236.617 143.667 238.023 142.017C239.266 140.558 240.796 140.13 242.029 141.512C243.489 140.636 245.113 140.438 246.66 140.946C248.207 141.454 249.594 142.642 250.617 144.334C251.639 146.025 252.242 148.13 252.335 150.335C252.427 152.54 252.006 154.728 251.133 156.574C250.26 158.42 248.981 159.825 247.487 160.581C245.994 161.337 244.364 161.403 242.841 160.77C241.318 160.136 239.983 158.837 239.034 157.066C238.084 155.294 237.572 153.144 237.572 150.935C237.573 150.547 237.59 150.159 237.622 149.774C236.55 149.565 236.181 147.722 235.109 147.513Z" fill="#2F2E41"/>
<path d="M299.73 307H196.765C196.694 307 196.625 306.96 196.574 306.89C196.523 306.82 196.495 306.724 196.495 306.625C196.495 306.525 196.523 306.429 196.574 306.359C196.625 306.289 196.694 306.249 196.765 306.249H299.73C299.801 306.249 299.87 306.289 299.921 306.359C299.972 306.429 300 306.525 300 306.625C300 306.724 299.972 306.82 299.921 306.89C299.87 306.96 299.801 307 299.73 307Z" fill="#FCE245"/>
</g>
<defs>
<clipPath id="clip0">
<rect width="237" height="279.381" fill="white" transform="translate(63 27.6194)"/>
</clipPath>
</defs>
</svg>
