<svg width="286" height="307" viewBox="0 0 286 307" fill="none" xmlns="http://www.w3.org/2000/svg">
<path d="M130.154 0L231.913 45.2482L257.046 146.92L186.626 228.454H73.6825L3.26324 146.92L28.3956 45.2482L130.154 0Z" fill="#51ABD2"/>
<g clip-path="url(#clip0)">
<path d="M199.657 106.271H198.266V66.6389C198.266 60.5554 195.944 54.7211 191.809 50.4194C187.675 46.1177 182.067 43.7011 176.22 43.7011H95.5202C89.6733 43.7011 84.0659 46.1177 79.9315 50.4194C75.7971 54.721 73.4744 60.5553 73.4744 66.6388V284.062C73.4744 290.146 75.797 295.98 79.9314 300.282C84.0658 304.583 89.6733 307 95.5202 307H176.22C182.067 307 187.675 304.583 191.809 300.282C195.944 295.98 198.266 290.146 198.266 284.062V134.481H199.657L199.657 106.271Z" fill="#3F3D56"/>
<path d="M193.574 66.7988V283.902C193.575 288.037 192.138 292.032 189.528 295.151C186.919 298.27 183.313 300.301 179.377 300.87C178.626 300.979 177.869 301.033 177.11 301.033H96.0193C95.2609 301.033 94.5034 300.979 93.7522 300.87C89.8166 300.3 86.2119 298.268 83.6032 295.15C80.9945 292.031 79.5579 288.036 79.5585 283.902V66.7988C79.5586 62.2555 81.2932 57.8984 84.3809 54.6858C87.4685 51.4732 91.6562 49.6684 96.0228 49.6683H105.86C105.374 50.9041 105.189 52.2451 105.32 53.573C105.45 54.901 105.893 56.1751 106.609 57.283C107.324 58.3909 108.291 59.2986 109.424 59.9258C110.556 60.5531 111.82 60.8808 113.103 60.88H159.335C160.618 60.8807 161.881 60.5529 163.013 59.9255C164.146 59.2981 165.112 58.3903 165.828 57.2824C166.543 56.1745 166.985 54.9003 167.116 53.5725C167.246 52.2446 167.06 50.9038 166.574 49.6683H177.11C181.477 49.6684 185.664 51.4732 188.752 54.6858C191.84 57.8984 193.574 62.2555 193.574 66.7988Z" fill="white"/>
<path d="M193.574 228.875V283.902C193.575 288.037 192.138 292.032 189.528 295.151C186.919 298.27 183.313 300.301 179.377 300.87H93.7522C89.8166 300.3 86.2119 298.269 83.6032 295.15C80.9945 292.032 79.5579 288.037 79.5585 283.902V228.875H193.574Z" fill="#FFDF00"/>
<path d="M136.566 276.203C142.581 276.203 147.457 271.13 147.457 264.872C147.457 258.614 142.581 253.541 136.566 253.541C130.552 253.541 125.676 258.614 125.676 264.872C125.676 271.13 130.552 276.203 136.566 276.203Z" fill="white"/>
<path d="M143.101 264.872H137.22V258.753H135.913V264.872H130.032V266.232H135.913V272.351H137.22V266.232H143.101V264.872Z" fill="#E6E6E6"/>
<path d="M155.904 193.638V203.815L150.881 209.867C150.881 209.867 148.766 209.042 148.766 203.54L147.973 195.564L155.904 193.638Z" fill="#FFB9B9"/>
<path d="M150.881 203.815C150.881 203.815 159.076 198.039 159.341 196.114C159.605 194.188 167.201 185.521 169.387 190.888C171.449 195.952 163.104 200.294 163.104 200.294C163.104 200.294 157.226 211.517 153.26 211.242C149.295 210.967 149.295 205.741 150.881 203.815Z" fill="#FFB9B9"/>
<path d="M146.123 265.704L145.329 270.655L149.559 269.555V265.704H146.123Z" fill="#FFB9B9"/>
<path d="M146.916 268.455C146.916 268.455 151.804 265.441 152.004 266.81C152.203 268.18 154.318 273.406 155.375 273.956C156.433 274.506 157.755 280.557 155.375 280.282C153.533 280.069 146.774 276.391 143.819 274.743C143.456 274.539 143.181 274.198 143.052 273.79C142.923 273.381 142.949 272.937 143.125 272.548C143.298 272.215 143.418 271.854 143.479 271.48C143.479 270.93 146.916 268.455 146.916 268.455Z" fill="#2F2E41"/>
<path d="M144.536 212.617C144.536 212.617 163.835 221.969 161.984 229.121C160.134 236.273 153.26 266.529 153.26 266.529C153.26 266.529 145.594 268.455 145.065 266.529C144.536 264.604 150.088 234.622 149.559 233.522C149.03 232.422 139.249 225.27 139.249 225.27L119.157 216.468L127.617 208.216L144.536 212.617Z" fill="#2F2E41"/>
<path d="M159.076 267.354L161.456 273.681L157.226 275.606L154.582 270.655L159.076 267.354Z" fill="#FFB9B9"/>
<path d="M144.801 167.507C144.801 167.507 142.421 170.808 144.272 172.458C146.122 174.109 144.801 180.16 144.801 180.16L142.421 187.037L132.904 185.111V173.834L133.433 168.333C133.433 168.333 138.192 163.657 138.72 160.081C139.249 156.505 144.801 167.507 144.801 167.507Z" fill="#FFB9B9"/>
<path d="M128.939 210.417C128.939 210.417 141.364 224.72 141.364 225.27C141.364 225.82 147.973 237.098 147.973 237.098L160.927 267.079C160.927 267.079 155.904 274.231 153.789 273.681C151.674 273.131 136.605 241.224 136.605 241.224C136.605 241.224 133.962 234.072 126.824 232.422C119.686 230.771 114.134 224.995 116.778 218.394C119.422 211.792 128.939 210.417 128.939 210.417Z" fill="#2F2E41"/>
<path d="M144.801 169.433C149.473 169.433 153.26 165.492 153.26 160.631C153.26 155.77 149.473 151.829 144.801 151.829C140.129 151.829 136.341 155.77 136.341 160.631C136.341 165.492 140.129 169.433 144.801 169.433Z" fill="#FFB9B9"/>
<path d="M144.536 174.934C144.536 174.934 143.479 181.26 142.421 181.811C141.364 182.361 140.571 184.286 138.192 181.536C135.812 178.785 133.697 173.284 133.697 173.284L125.502 183.736L124.709 212.617C124.709 212.617 133.962 210.142 136.87 212.617C139.778 215.093 146.122 214.818 146.122 214.818L144.801 209.317L145.858 199.965L145.594 191.438L145.329 185.386L144.536 174.934Z" fill="#FDE141"/>
<path d="M143.605 170.304C143.605 170.304 147.18 172.183 147.444 173.284C147.709 174.384 152.467 176.584 152.467 176.584C152.467 176.584 154.318 178.51 154.318 179.61C154.318 180.71 147.973 193.363 147.973 193.363C147.973 193.363 146.651 201.89 147.18 203.54C147.709 205.191 146.122 211.517 146.122 211.517L149.295 215.368H146.387C146.387 215.368 143.214 213.718 143.214 212.892C143.214 212.067 143.743 206.291 144.008 203.815C144.272 201.34 144.272 192.538 143.743 189.512C143.214 186.487 143.479 178.51 143.479 176.584C143.479 174.659 143.605 170.304 143.605 170.304Z" fill="#3F3D56"/>
<path d="M135.416 166.128C135.416 166.128 134.226 166.407 130.789 167.507C127.353 168.608 122.065 170.258 120.215 172.458C118.916 174.086 117.765 175.835 116.778 177.685L117.836 197.489C117.836 197.489 115.721 201.615 115.985 203.815C116.249 206.016 118.364 206.291 116.778 210.967C115.192 215.643 112.02 219.769 114.928 220.319C117.836 220.869 125.502 218.944 128.939 220.044C132.376 221.144 136.341 215.918 136.341 215.918C136.341 215.918 131.054 216.468 131.847 214.268C132.64 212.067 141.364 187.312 139.514 181.811C137.663 176.309 135.416 166.128 135.416 166.128Z" fill="#3F3D56"/>
<path d="M152.996 178.235L154.318 179.335C154.318 179.335 158.019 193.088 156.961 194.463C155.904 195.839 147.444 198.864 146.916 196.939C146.387 195.013 152.996 178.235 152.996 178.235Z" fill="#3F3D56"/>
<path d="M113.87 187.862C113.87 187.862 109.905 199.689 109.905 202.99C109.905 206.291 110.433 225.545 110.433 225.545C110.433 225.545 113.077 237.103 118.629 233.802C124.18 230.501 116.249 224.995 116.249 224.995C116.249 224.995 116.514 203.265 118.629 200.24C120.744 197.214 121.537 192.813 121.537 192.813L113.87 187.862Z" fill="#FFB9B9"/>
<path d="M157.226 273.406C157.226 273.406 161.191 271.205 161.984 272.856C162.777 274.506 167.007 283.583 166.479 284.683C165.95 285.784 163.042 290.184 159.605 289.084C156.168 287.984 155.904 282.208 155.904 282.208L155.64 275.606L157.226 273.406Z" fill="#2F2E41"/>
<path d="M146.457 158.505C145.874 158.79 145.183 158.961 144.817 159.512C144.546 159.92 144.519 160.451 144.321 160.903C144.105 161.35 143.733 161.695 143.281 161.867C142.829 162.039 142.331 162.025 141.888 161.829C141.78 161.281 141.474 160.797 141.033 160.477C140.81 160.325 140.546 160.251 140.28 160.266C140.014 160.281 139.759 160.385 139.554 160.562C139.009 161.102 139.202 162.045 138.948 162.782C138.709 163.301 138.381 163.769 137.979 164.164C137.4 164.859 136.939 165.673 136.242 166.238C135.546 166.804 134.489 167.048 133.797 166.477C133.214 165.997 133.094 165.111 133.235 164.352C133.377 163.593 133.727 162.895 133.925 162.15C134.567 159.729 133.543 157.144 133.86 154.654C134.266 151.464 136.872 148.944 139.781 147.85C140.992 147.337 142.317 147.191 143.604 147.429C144.934 147.738 146.071 148.619 147.345 149.123C148.707 149.662 150.189 149.756 151.615 150.071C153.041 150.386 154.508 150.995 155.336 152.244C155.913 153.115 156.111 154.196 156.589 155.13C157.14 156.195 158.032 157.027 159.11 157.479L157.603 157.39C157.855 158.09 158.267 158.716 158.804 159.214C158.097 159.364 157.362 159.263 156.717 158.927C156.729 159.249 156.804 159.566 156.937 159.857C157.071 160.148 157.261 160.407 157.495 160.619C156.335 160.582 155.112 160.527 154.132 159.88C153.652 159.564 153.26 159.123 152.809 158.764C151.846 157.999 150.651 157.636 149.487 157.288C148.875 157.105 148.139 156.851 147.586 157.26C147.125 157.601 147.053 158.213 146.457 158.505Z" fill="#2F2E41"/>
<path d="M120.744 174.384L116.778 177.685L111.491 190.337C111.491 190.337 118.893 196.389 120.744 195.564C122.594 194.738 125.767 180.16 125.767 180.16L120.744 174.384Z" fill="#3F3D56"/>
<path d="M171.739 193.422C171.793 193.355 171.792 193.261 171.737 193.212C171.681 193.164 171.592 193.18 171.538 193.248C171.484 193.315 171.485 193.409 171.54 193.458C171.596 193.506 171.684 193.49 171.739 193.422Z" fill="#F2F2F2"/>
<path d="M93.7534 78.7341C93.4176 78.7344 93.0956 78.8734 92.8581 79.1205C92.6206 79.3676 92.4871 79.7026 92.4867 80.0521V102.12C92.487 102.47 92.6206 102.805 92.8581 103.052C93.0956 103.299 93.4176 103.438 93.7534 103.438H179.258C179.594 103.438 179.915 103.299 180.153 103.052C180.39 102.805 180.524 102.47 180.524 102.12V80.0521C180.524 79.7026 180.39 79.3676 180.153 79.1205C179.915 78.8734 179.593 78.7344 179.258 78.7341H93.7534Z" fill="white"/>
<path d="M93.7534 78.7341C93.4176 78.7344 93.0956 78.8734 92.8581 79.1205C92.6206 79.3676 92.4871 79.7026 92.4867 80.0521V102.12C92.487 102.47 92.6206 102.805 92.8581 103.052C93.0956 103.299 93.4176 103.438 93.7534 103.438H179.258C179.594 103.438 179.915 103.299 180.153 103.052C180.39 102.805 180.524 102.47 180.524 102.12V80.0521C180.524 79.7026 180.39 79.3676 180.153 79.1205C179.915 78.8734 179.593 78.7344 179.258 78.7341H93.7534Z" fill="#E6E6E6"/>
<path d="M93.9117 101.956H179.099V80.2169H93.9117V101.956Z" fill="white"/>
<path d="M104.837 98.0056C108.51 98.0056 111.488 94.9076 111.488 91.0862C111.488 87.2647 108.51 84.1667 104.837 84.1667C101.164 84.1667 98.187 87.2647 98.187 91.0862C98.187 94.9076 101.164 98.0056 104.837 98.0056Z" fill="#FDE141"/>
<path d="M120.196 86.4732C119.902 86.4732 119.621 86.5947 119.413 86.811C119.205 87.0273 119.088 87.3206 119.088 87.6264C119.088 87.9323 119.205 88.2256 119.413 88.4419C119.621 88.6582 119.902 88.7797 120.196 88.7797H172.449C172.743 88.7797 173.025 88.6582 173.233 88.4419C173.441 88.2256 173.557 87.9323 173.557 87.6264C173.557 87.3206 173.441 87.0273 173.233 86.811C173.025 86.5947 172.743 86.4732 172.449 86.4732H120.196Z" fill="#FCE245"/>
<path d="M120.196 93.3926C119.903 93.3931 119.621 93.5149 119.414 93.7311C119.206 93.9473 119.09 94.2403 119.09 94.5458C119.09 94.8513 119.206 95.1443 119.414 95.3606C119.621 95.5768 119.903 95.6985 120.196 95.699H172.449C172.595 95.6993 172.739 95.6697 172.874 95.6119C173.008 95.554 173.131 95.4691 173.234 95.362C173.337 95.2549 173.419 95.1277 173.475 94.9876C173.531 94.8476 173.559 94.6974 173.559 94.5458C173.559 94.3942 173.531 94.2441 173.475 94.104C173.419 93.964 173.337 93.8367 173.234 93.7296C173.131 93.6225 173.008 93.5376 172.874 93.4798C172.739 93.4219 172.595 93.3923 172.449 93.3926H120.196Z" fill="#FDE03C"/>
<path d="M93.7534 118.169C93.4176 118.169 93.0956 118.308 92.8581 118.555C92.6206 118.802 92.4871 119.137 92.4867 119.487V141.555C92.487 141.904 92.6206 142.239 92.8581 142.486C93.0956 142.733 93.4176 142.872 93.7534 142.873H179.258C179.594 142.872 179.915 142.733 180.153 142.486C180.39 142.239 180.524 141.904 180.524 141.555V119.487C180.524 119.137 180.39 118.802 180.153 118.555C179.915 118.308 179.593 118.169 179.258 118.169H93.7534Z" fill="white"/>
<path d="M93.7534 118.169C93.4176 118.169 93.0956 118.308 92.8581 118.555C92.6206 118.802 92.4871 119.137 92.4867 119.487V141.555C92.487 141.904 92.6206 142.239 92.8581 142.486C93.0956 142.733 93.4176 142.872 93.7534 142.873H179.258C179.594 142.872 179.915 142.733 180.153 142.486C180.39 142.239 180.524 141.904 180.524 141.555V119.487C180.524 119.137 180.39 118.802 180.153 118.555C179.915 118.308 179.593 118.169 179.258 118.169H93.7534Z" fill="#E6E6E6"/>
<path d="M93.9117 141.39H179.099V119.651H93.9117V141.39Z" fill="white"/>
<path d="M104.837 137.44C108.51 137.44 111.488 134.342 111.488 130.521C111.488 126.699 108.51 123.601 104.837 123.601C101.164 123.601 98.187 126.699 98.187 130.521C98.187 134.342 101.164 137.44 104.837 137.44Z" fill="#FDE03C"/>
<path d="M120.196 125.908C119.902 125.908 119.621 126.029 119.413 126.245C119.205 126.462 119.088 126.755 119.088 127.061C119.088 127.367 119.205 127.66 119.413 127.876C119.621 128.093 119.902 128.214 120.196 128.214H172.449C172.743 128.214 173.025 128.093 173.233 127.876C173.441 127.66 173.557 127.367 173.557 127.061C173.557 126.755 173.441 126.462 173.233 126.245C173.025 126.029 172.743 125.908 172.449 125.908H120.196Z" fill="#FDE141"/>
<path d="M120.196 132.827C119.903 132.828 119.621 132.949 119.414 133.166C119.206 133.382 119.09 133.675 119.09 133.98C119.09 134.286 119.206 134.579 119.414 134.795C119.621 135.011 119.903 135.133 120.196 135.134H172.449C172.743 135.134 173.025 135.012 173.233 134.796C173.441 134.58 173.557 134.286 173.557 133.98C173.557 133.675 173.441 133.381 173.233 133.165C173.025 132.949 172.743 132.827 172.449 132.827H120.196Z" fill="#FDE141"/>
</g>
<defs>
<clipPath id="clip0">
<rect width="212.026" height="263.299" fill="white" transform="translate(73.4744 43.701)"/>
</clipPath>
</defs>
</svg>
