<svg width="474" height="418" viewBox="0 0 474 418" fill="none" xmlns="http://www.w3.org/2000/svg">
<path d="M368.675 192.69L157.739 6.67775C152.86 2.37205 146.347 0 139.403 0C132.459 0 125.946 2.37205 121.067 6.67775L105.533 20.3731C95.4254 29.2971 95.4254 43.8013 105.533 52.7118L282.662 208.913L105.337 365.288C100.458 369.594 97.7645 375.334 97.7645 381.454C97.7645 387.581 100.458 393.321 105.337 397.63L120.871 411.322C125.753 415.628 132.262 418 139.206 418C146.151 418 152.663 415.628 157.542 411.322L368.675 225.14C373.565 220.821 376.251 215.054 376.235 208.924C376.251 202.769 373.565 197.006 368.675 192.69Z" fill="white"/>
</svg>
