<svg width="353" height="313" viewBox="0 0 353 313" fill="none" xmlns="http://www.w3.org/2000/svg">
<path d="M337.222 2.95205C321.31 -5.61595 303.562 10.908 293.158 20.7C269.291 43.956 249.095 70.884 226.45 95.364C201.358 122.292 178.102 149.22 152.398 175.537C137.71 190.225 121.798 206.137 112.006 224.497C89.974 203.076 71.002 179.82 46.522 160.849C28.774 147.385 -0.601978 137.593 0.0100224 170.029C1.23402 212.258 38.566 257.546 66.106 286.309C77.734 298.549 93.034 311.401 110.782 312.013C132.202 313.237 154.234 287.533 167.086 273.457C189.731 248.977 208.091 221.436 228.898 196.345C255.826 163.297 283.366 130.86 309.682 97.2C326.206 76.392 378.226 24.983 337.222 2.95205ZM26.937 167.581C26.325 167.581 25.713 167.581 24.489 168.192C22.041 167.581 20.205 166.968 17.757 165.744C19.593 164.52 22.653 165.132 26.937 167.581Z" fill="white"/>
</svg>
